<?xml version="1.0" encoding="utf-8"?>
<!-- Generator: Adobe Illustrator 19.2.1, SVG Export Plug-In . SVG Version: 6.00 Build 0)  -->
<!DOCTYPE svg PUBLIC "-//W3C//DTD SVG 1.1//EN" "http://www.w3.org/Graphics/SVG/1.1/DTD/svg11.dtd">
<svg version="1.1" xmlns="http://www.w3.org/2000/svg" xmlns:xlink="http://www.w3.org/1999/xlink" x="0px" y="0px"
	 viewBox="0 0 1000 1000" style="enable-background:new 0 0 1000 1000;" xml:space="preserve">
<style type="text/css">
	.st0{fill:#ECEFF4;}
</style>
<g id="Background_xA0_Obraz_1_">
</g>
<g id="Ellipse_3_copy2_copy_10_xA0_Obraz_1_">
	<g>
		<path class="st0" d="M284.2,572c-17.8-33.5-27.8-71.7-27.8-112.3c0-132.5,107.5-240,240-240s240,107.5,240,240
			c0,41-10.3,79.5-28.4,113.3c87.4,55.9,151.2,145.3,173.6,250C955.5,736,1000,623.2,1000,500C1000,223.9,776.1,0,500,0
			S0,223.9,0,500c0,119,41.6,228.3,111,314.2C135.2,712.7,198.5,626.3,284.2,572z"/>
		<circle class="st0" cx="496.4" cy="459.8" r="180"/>
		<path class="st0" d="M162.4,868.8c89,81.5,207.5,131.2,337.6,131.2c126,0,241.1-46.6,329-123.5c-9.4-107.3-69.3-200.1-155.8-254.4
			c-43.9,47.8-106.8,77.7-176.8,77.7c-70.4,0-133.7-30.3-177.6-78.6C233.6,674.1,173.9,764.2,162.4,868.8z"/>
	</g>
</g>
</svg>
