<?xml version="1.0" encoding="utf-8"?>
<!-- Generator: Adobe Illustrator 21.0.2, SVG Export Plug-In . SVG Version: 6.00 Build 0)  -->
<svg version="1.1" id="Layer_2" xmlns="http://www.w3.org/2000/svg" xmlns:xlink="http://www.w3.org/1999/xlink" x="0px" y="0px"
	 viewBox="0 0 500 500" style="enable-background:new 0 0 500 500;" xml:space="preserve">
<style type="text/css">
	.st0{fill:#DEE1E6;}
</style>
<g>
	<path class="st0" d="M251.1,225.5c-18.3,0-33.1,14.8-33.1,33.1c0,18.3,14.8,33.1,33.1,33.1s33.1-14.8,33.1-33.1
		C284.2,240.3,269.4,225.5,251.1,225.5z M251.1,280.8c-12.3,0-22.2-10-22.2-22.2c0-12.3,10-22.2,22.2-22.2c12.3,0,22.2,10,22.2,22.2
		C273.3,270.9,263.4,280.8,251.1,280.8z"/>
	<g>
		<path class="st0" d="M280,205v-14.2c0-3.1-1.9-5.8-5-5.8h-47.8c-3.1,0-6.2,2.7-6.2,5.8V205 M158.3,206.7c-3.1,0-6.3,2.3-6.3,5.4
			v96.1c0,3.1,3.8,6.7,6.9,6.7h184.8c3.1,0,4.3-3.6,4.3-6.7v-96.1c0-3.1-1.2-5.2-4.3-5.2h-6.3c0,0-0.4-0.7-0.4-0.9v-3.5
			c0-3.1-2.1-5.6-5.2-5.6h-9.3c-3.1,0-6.5,2.5-6.5,5.6v3.5c0,0.2,0.3,0.5,0.3,0.7 M179,286.4c0,3.1-2.5,5.6-5.6,5.6h-1.8
			c-3.1,0-5.6-2.5-5.6-5.6v-48.8c0-3.1,2.5-5.6,5.6-5.6h1.8c3.1,0,5.6,2.5,5.6,5.6V286.4z M251.1,298.3c-21.9,0-39.7-17.8-39.7-39.7
			s17.8-39.7,39.7-39.7c21.9,0,39.7,17.8,39.7,39.7S273,298.3,251.1,298.3z"/>
	</g>
</g>
</svg>
