<?xml version="1.0" encoding="UTF-8" standalone="no"?>
<!-- Created with Inkscape (http://www.inkscape.org/) -->

<svg
   xmlns:dc="http://purl.org/dc/elements/1.1/"
   xmlns:cc="http://creativecommons.org/ns#"
   xmlns:rdf="http://www.w3.org/1999/02/22-rdf-syntax-ns#"
   xmlns:svg="http://www.w3.org/2000/svg"
   xmlns="http://www.w3.org/2000/svg"
   xmlns:xlink="http://www.w3.org/1999/xlink"
   xmlns:sodipodi="http://sodipodi.sourceforge.net/DTD/sodipodi-0.dtd"
   xmlns:inkscape="http://www.inkscape.org/namespaces/inkscape"
   width="336.7168"
   height="144.35214"
   id="svg2"
   version="1.1"
   inkscape:version="0.47 r22583"
   sodipodi:docname="New document 1">
  <defs
     id="defs4">
    <linearGradient
       id="linearGradient3605">
      <stop
         style="stop-color:#f7f7e0;stop-opacity:1;"
         offset="0"
         id="stop3607" />
      <stop
         style="stop-color:#eaeaac;stop-opacity:1;"
         offset="1"
         id="stop3609" />
    </linearGradient>
    <inkscape:path-effect
       effect="spiro"
       id="path-effect2823"
       is_visible="true" />
    <inkscape:path-effect
       effect="spiro"
       id="path-effect2818"
       is_visible="true" />
    <inkscape:perspective
       sodipodi:type="inkscape:persp3d"
       inkscape:vp_x="0 : 526.18109 : 1"
       inkscape:vp_y="0 : 1000 : 0"
       inkscape:vp_z="744.09448 : 526.18109 : 1"
       inkscape:persp3d-origin="372.04724 : 350.78739 : 1"
       id="perspective10" />
    <linearGradient
       inkscape:collect="always"
       xlink:href="#linearGradient3605"
       id="linearGradient3611"
       x1="314.84048"
       y1="650.61267"
       x2="369.93872"
       y2="650.61267"
       gradientUnits="userSpaceOnUse" />
  </defs>
  <sodipodi:namedview
     id="base"
     pagecolor="#ffffff"
     bordercolor="#666666"
     borderopacity="1.0"
     inkscape:pageopacity="0.0"
     inkscape:pageshadow="2"
     inkscape:zoom="2.8"
     inkscape:cx="168.05042"
     inkscape:cy="102.21841"
     inkscape:document-units="px"
     inkscape:current-layer="layer1"
     showgrid="false"
     inkscape:object-nodes="false"
     inkscape:snap-smooth-nodes="false"
     inkscape:object-paths="false"
     inkscape:window-width="1600"
     inkscape:window-height="1123"
     inkscape:window-x="0"
     inkscape:window-y="25"
     inkscape:window-maximized="1" />
  <metadata
     id="metadata7">
    <rdf:RDF>
      <cc:Work
         rdf:about="">
        <dc:format>image/svg+xml</dc:format>
        <dc:type
           rdf:resource="http://purl.org/dc/dcmitype/StillImage" />
        <dc:title></dc:title>
      </cc:Work>
    </rdf:RDF>
  </metadata>
  <g
     inkscape:label="Layer 1"
     inkscape:groupmode="layer"
     id="layer1"
     transform="translate(-181.16903,-581.72025)">
    <path
       style="fill:#1d222d;fill-opacity:1;stroke:none"
       d="m 236.3757,598.04608 c -3.81426,3.17855 -58.46641,124.85004 -55.05332,127.53175 3.65798,2.87413 54.57363,-7.34155 180.96525,-16.10116 l -1.1581,13.0707 c 0,0 154.04827,5.55585 156.57365,2.02031 2.52538,-3.53553 -21.97082,-122.98608 -21.97082,-122.98608 0,0 -257.11,-5.40773 -259.35666,-3.53552 z"
       id="path2831"
       sodipodi:nodetypes="csccscs" />
    <path
       style="fill:url(#linearGradient3611);fill-opacity:1;stroke:none"
       d="m 188.57143,719.50504 c 0,0 44.2802,-117.31161 58.06424,-128.05034 7.93424,-6.18133 103.10001,-19.33889 123.30306,1.87431 l -3.05585,113.5863 c -85.10535,-15.15229 -178.31145,12.58973 -178.31145,12.58973 z"
       id="path2825"
       sodipodi:nodetypes="csccc" />
    <path
       style="fill:#f7f7e0;fill-opacity:1;stroke:none"
       d="m 368.92858,593.07647 c 0,0 119.40169,-7.70378 122.71971,3.15301 3.07725,10.06902 19.73694,114.22136 19.73694,114.22136 l -145.5125,-3.78807 3.05585,-113.5863 z"
       id="path2827"
       sodipodi:nodetypes="csccc" />
    <path
       style="fill:#ebebb2;fill-opacity:1;stroke:none"
       d="m 364.28571,719.50504 1.58702,-12.84227 c -70.71068,-5.80838 -177.3013,12.84227 -177.3013,12.84227 0,0 108.86346,-37.33847 177.04876,-13.09481 l 145.43848,2.01828 c 0.83653,5.79259 1.88623,11.36056 -0.34435,12.5051 -3.62101,1.85798 -146.42857,-1.42857 -146.42857,-1.42857"
       id="path2816"
       sodipodi:nodetypes="cccccsc" />
  </g>
</svg>
